# AST/ASF file generated using VICON BodyLanguage
# -----------------------------------------------
:version 1.10
:name VICON
:units
  mass 1.0
  length 0.45
  angle deg
:documentation
   .ast/.asf automatically generated from VICON data using
   VICON BodyBuilder and BodyLanguage model FoxedUp or BRILLIANT.MOD
:root
   order TX TY TZ RX RY RZ
   axis XYZ
   position 0 0 0  
   orientation 0 0 0 
:bonedata
  begin
     id 1 
     name lhipjoint
     direction 0.561001 -0.76473 0.316963 
     length 2.4722 
     axis 0 0 0  XYZ
  end
  begin
     id 2 
     name lfemur
     direction 0.34202 -0.939693 0  
     length 7.59403  
     axis 0 0 20  XYZ
    dof rx ry rz
    limits (-160.0 20.0)
           (-70.0 70.0)
           (-60.0 70.0)
  end
  begin
     id 3 
     name ltibia
     direction 0.34202 -0.939693 0   
     length 7.89655   
     axis 0 0 20   XYZ
    dof rx
    limits (-10.0 170.0)
  end
  begin
     id 4 
     name lfoot
     direction 0.061296 -0.168409 0.98381   
     length 2.73287   
     axis -90 7.62852e-016 20   XYZ
    dof rx rz
    limits (-45.0 90.0)
           (-70.0 20.0)
  end
  begin
     id 5 
     name ltoes
     direction 1.53547e-011 -4.21984e-011 1   
     length 1.37057   
     axis -90 7.62852e-016 20   XYZ
    dof rx
    limits (-90.0 20.0)
  end
  begin
     id 6 
     name rhipjoint
     direction -0.559611 -0.765599 0.317323   
     length 2.46939  
     axis 0 0 0  XYZ 
  end
  begin
     id 7 
     name rfemur
     direction -0.34202 -0.939693 0   
     length 7.53712   
     axis 0 0 -20   XYZ
    dof rx ry rz
    limits (-160.0 20.0)
           (-70.0 70.0)
           (-70.0 60.0)
  end
  begin
     id 8 
     name rtibia
     direction -0.34202 -0.939693 0   
     length 8.12549   
     axis 0 0 -20   XYZ
    dof rx
    limits (-10.0 170.0)
 end
 begin
     id 9 
     name rfoot
     direction -0.066984 -0.184037 0.980634   
     length 2.67541  
     axis -90 -7.62852e-016 -20   XYZ
    dof rx rz
    limits (-45.0 90.0)
           (-20.0 70.0)
  end
  begin
     id 10 
     name rtoes
     direction -1.53549e-011 -4.21786e-011 1   
     length 1.34085   
     axis -90 -7.62852e-016 -20   XYZ
    dof rx
    limits (-90.0 20.0)
  end
  begin
     id 11 
     name lowerback
     direction -0.0522728 0.992594 -0.109658   
     length 2.05633   
     axis 0 0 0   XYZ
    dof rx ry rz
    limits (-20.0 45.0)
           (-30.0 30.0)
           (-30.0 30.0)
  end
  begin
     id 12 
     name upperback
     direction 0.00589338 0.999977 0.00335704   
     length 2.05845   
     axis 0 0 0   XYZ
    dof rx ry rz
    limits (-20.0 45.0)
           (-30.0 30.0)
           (-30.0 30.0)
  end
  begin
     id 13 
     name thorax
     direction 0.0292928 0.998059 0.0549487   
     length 2.09281   
     axis 0 0 0   XYZ
    dof rx ry rz
    limits (-20.0 45.0)
           (-30.0 30.0)
           (-30.0 30.0)
  end
  begin
     id 14 
     name lowerneck
     direction 0.0356368 0.980775 0.191858   
     length 1.84767   
     axis 0 0 0   XYZ
    dof rx ry rz
    limits (-20.0 45.0)
           (-30.0 30.0)
           (-30.0 30.0)
  end
  begin
     id 15 
     name upperneck
     direction -0.0227605 0.98931 -0.14404   
     length 1.89582   
     axis 0 0 0   XYZ
    dof rx ry rz
    limits (-20.0 45.0)
           (-30.0 30.0)
           (-30.0 30.0)
  end
  begin
     id 16
     name head
     direction -0.00932985 0.997511 -0.0698904  
     length 1.90213  
     axis 0 0 0   XYZ
    dof rx ry rz
    limits (-20.0 45.0)
           (-30.0 30.0)
           (-30.0 30.0)
  end
  begin
     id 17 
     name lclavicle
     direction 0.873442 0.479511 0.0846686  
     length 3.41193  
     axis 0 0 0   XYZ
    dof ry rz
    limits (-20.0 10.0)
           (0.0 20.0)
  end
  begin
     id 18 
     name lhumerus
     direction 1 -4.4897e-011 -5.62117e-018   
     length 5.59864   
     axis 180 -30 -90   XYZ
    dof rx ry rz
    limits (-60.0 90.0)
           (-90.0 90.0)
           (-90.0 90.0)
  end
  begin
     id 19
     name lradius
     direction 1 -4.48966e-011 -6.26295e-027   
     length 3.59542   
     axis 180 -30 -90   XYZ
    dof rx
    limits (-10.0 170.0)
  end
  begin
     id 20
     name lwrist
     direction 1 -4.48947e-011 -1.74096e-026   
     length 1.79771   
     axis 1.04567e-014 90 90   XYZ
    dof ry
    limits (-180.0 0.0)
 end
  begin
     id 21 
     name lhand
     direction 1 -4.49085e-011 -3.48469e-026   
     length 0.572014   
     axis 2.22196e-014 90 90   XYZ
    dof rx rz
    limits (-90.0 90.0)
           (-45.0 45.0)
  end
  begin
     id 22 
     name lfingers
     direction 1 -4.48884e-011 -6.96135e-026   
     length 0.461173   
     axis 4.44383e-014 90 90   XYZ
    dof rx
    limits (0.0 90.0)
  end
  begin
     id 23
     name lthumb
     direction 0.707107 -6.34976e-011 0.707107   
     length 0.662154   
     axis -90 45 -5.4397e-014   XYZ
    dof rx rz
    limits (-45.0 45.0)
           (-45.0 45.0)
  end
  begin
     id 24 
     name rclavicle
     direction -0.890242 0.443271 0.104786   
     length 3.46753  
     axis 0 0 0   XYZ 
    dof ry rz
    limits (-10.0 20.0)
           (-20.0 0.0)
  end
  begin
     id 25 
     name rhumerus
     direction -1 -4.48963e-011 -5.41723e-018  
     length 5.8094   
     axis 180 30 90   XYZ
    dof rx ry rz
    limits (-90.0 60.0)
           (-90.0 90.0)
           (-90.0 90.0)
  end
  begin
     id 26 
     name rradius
     direction -1 -4.48958e-011 -6.51059e-027   
     length 3.66953   
     axis 180 30 90   XYZ
    dof rx
    limits (-10.0 170.0)
  end
  begin
     id 27 
     name rwrist
     direction -1 -4.48975e-011 -1.74124e-026   
     length 1.83476   
     axis 1.04567e-014 -90 -90   XYZ
    dof ry
    limits (-180.0 0.0)
  end
  begin
     id 28
     name rhand
     direction -1 -4.49013e-011 -3.48326e-026   
     length 0.57843   
     axis 2.22196e-014 -90 -90   XYZ
    dof rx rz
    limits (-90.0 90.0)
           (-45.0 45.0)
  end
  begin
     id 29
     name rfingers
     direction -1 -4.49023e-011 -6.9669e-026   
     length 0.466345   
     axis 4.44383e-014 -90 -90   XYZ
    dof rx
    limits (0.0 90.0)
  end
  begin
     id 30
     name rthumb
     direction -0.707107 -6.34926e-011 0.707107   
     length 0.669581   
     axis -90 -45 5.4397e-014   XYZ
    dof rx rz
    limits (-45.0 45.0)
           (-45.0 45.0)
  end
:hierarchy
  begin
    root lhipjoint rhipjoint lowerback
    lhipjoint lfemur
    lfemur ltibia
    ltibia lfoot
    lfoot ltoes
    rhipjoint rfemur
    rfemur rtibia
    rtibia rfoot
    rfoot rtoes
    lowerback upperback
    upperback thorax
    thorax lowerneck lclavicle rclavicle
    lowerneck upperneck
    upperneck head
    lclavicle lhumerus
    lhumerus lradius
    lradius lwrist
    lwrist lhand lthumb
    lhand lfingers
    rclavicle rhumerus
    rhumerus rradius
    rradius rwrist
    rwrist rhand rthumb
    rhand rfingers
  end

#!OML:ASF H:\SkateBoarding\Project 1\Capture day 1\Session 1\Skater.ASF
:FULLY-SPECIFIED
:DEGREES
128
root -12.7327 18.1484 -4.31196 7.58648 45.6725 4.87273
lowerback 12.3045 -1.17443 -2.56372
upperback -1.85548 -2.06255 -1.19807
thorax -8.86486 -0.897643 0.57326
lowerneck -21.9292 -2.89592 -2.47168
upperneck 35.884 -3.23049 0.657574
head 16.7246 -1.43724 0.102687
rclavicle -5.23549e-014 1.10325e-014
rhumerus -23.2729 23.0226 -71.9246
rradius 56.3255
rwrist -14.0277
rhand -43.8669 5.80444
rfingers 7.12502
rthumb -16.6931 -23.4978
lclavicle -5.23549e-014 1.10325e-014
lhumerus 4.00922 -40.8465 86.0754
lradius 101.839
lwrist 21.7026
lhand -36.6133 -5.8215
lfingers 7.12502
lthumb -9.70159 23.9351
rfemur -35.7089 -5.93217 11.1928
rtibia 66.5156
rfoot -31.5917 17.9635
rtoes -10.4863
lfemur -11.227 4.22783 -5.24348
ltibia 78.0157
lfoot -23.902 -7.6778
ltoes -20.6099
129
root -12.7621 18.1934 -3.90579 7.69363 47.0463 4.90332
lowerback 12.2333 -1.20293 -2.75682
upperback -1.84463 -2.1297 -1.23438
thorax -8.8051 -0.922089 0.654241
lowerneck -21.8677 -3.14249 -2.63001
upperneck 35.7651 -3.61591 0.864813
head 16.667 -1.58454 0.144585
rclavicle -1.78658e-014 1.73937e-014
rhumerus -24.0856 22.5898 -72.0864
rradius 56.9009
rwrist -14.114
rhand -43.928 5.81072
rfingers 7.12502
rthumb -16.7518 -23.4866
lclavicle -1.78658e-014 1.73937e-014
lhumerus 2.81515 -41.435 87.2476
lradius 101.865
lwrist 21.4087
lhand -36.6318 -5.91525
lfingers 7.12502
lthumb -9.71944 23.8405
rfemur -34.971 -6.61464 11.6175
rtibia 66.0279
rfoot -32.6332 17.0067
rtoes -11.5245
lfemur -13.1237 5.06624 -6.00589
ltibia 79.3006
lfoot -25.4797 -8.90995
ltoes -20.2348
130
root -12.7899 18.2313 -3.49735 7.64555 48.5578 4.7437
lowerback 12.1441 -1.25653 -2.77091
upperback -1.83088 -2.20241 -1.27496
thorax -8.73773 -0.958712 0.630395
lowerneck -21.6931 -3.43999 -2.74138
upperneck 35.5947 -4.10549 1.08622
head 16.5596 -1.76737 0.165112
rclavicle -1.46852e-014 -2.78299e-015
rhumerus -25.0239 22.1959 -72.2996
rradius 57.5164
rwrist -14.2307
rhand -43.8862 5.90994
rfingers 7.12502
rthumb -16.7116 -23.3907
lclavicle -1.46852e-014 -2.78299e-015
lhumerus 1.57239 -42.0738 88.4534
lradius 101.8
lwrist 21.1348
lhand -36.7798 -6.03432
lfingers 7.12502
lthumb -9.8622 23.7147
rfemur -34.2166 -7.34834 12.1488
rtibia 65.525
rfoot -34.0669 15.6544
rtoes -13.0341
lfemur -14.8876 5.704 -6.66616
ltibia 80.1915
lfoot -26.7401 -9.11207
ltoes -19.424
131
root -12.816 18.2774 -3.08573 7.43171 49.8315 4.502
lowerback 12.1816 -1.22745 -2.87452
upperback -1.79571 -2.17953 -1.27908
thorax -8.71838 -0.942844 0.68042
lowerneck -21.4891 -3.66159 -2.65091
upperneck 35.3571 -4.45703 1.04274
head 16.3935 -1.90788 0.0638173
rclavicle 2.45251e-014 2.70347e-014
rhumerus -26.0168 21.8743 -72.5357
rradius 58.1669
rwrist -14.2457
rhand -44.033 5.74474
rfingers 7.12502
rthumb -16.853 -23.544
lclavicle 2.45251e-014 2.70347e-014
lhumerus 0.196534 -42.6065 89.6774
lradius 101.676
lwrist 20.8824
lhand -36.8625 -6.35666
lfingers 7.12502
lthumb -9.94203 23.3886
rfemur -33.4319 -7.43925 12.6391
rtibia 65.036
rfoot -34.9053 15.2032
rtoes -12.8252
lfemur -16.2589 6.43722 -7.35117
ltibia 80.536
lfoot -28.0467 -8.88157
ltoes -19.5855
132
root -12.8413 18.3172 -2.66866 7.16179 51.4154 4.1369
lowerback 12.1207 -1.27294 -2.94807
upperback -1.73151 -2.24277 -1.23661
thorax -8.60704 -0.97085 0.776682
lowerneck -21.3588 -3.95173 -2.64132
upperneck 35.1803 -4.93357 1.14252
head 16.2881 -2.08885 0.0132844
rclavicle 8.02593e-014 -7.15625e-015
rhumerus -27.0505 21.5098 -72.754
rradius 58.8628
rwrist -14.771
rhand -43.9244 6.15712
rfingers 7.12502
rthumb -16.7484 -23.1404
lclavicle 8.02593e-014 -7.15625e-015
lhumerus -1.17236 -43.1834 90.8638
lradius 101.495
lwrist 20.7262
lhand -37.2416 -7.02311
lfingers 7.12502
lthumb -10.3077 22.7043
rfemur -32.6614 -7.80138 13.2847
rtibia 64.5851
rfoot -35.8601 14.3248
rtoes -12.9542
lfemur -17.57 6.73009 -7.92731
ltibia 80.4667
lfoot -29.3438 -8.91423
ltoes -19.5761
